<svg width="20" height="20" viewBox="0 0 20 20" fill="none" xmlns="http://www.w3.org/2000/svg">
<path d="M10 2.83301C13.9581 2.83301 17.1669 6.04197 17.167 10C17.1668 13.958 13.958 17.166 10 17.166L9.5918 17.1553C9.18655 17.1325 8.78931 17.0758 8.4043 16.9883L8.51562 16.501L8.62598 16.0127C8.95665 16.0879 9.29837 16.1366 9.64746 16.1562L10 16.166C13.4057 16.166 16.1668 13.4057 16.167 10C16.1669 6.59425 13.4058 3.83301 10 3.83301C9.52752 3.83303 9.06704 3.88606 8.62598 3.98633L8.51562 3.49902L8.4043 3.01172C8.9176 2.89503 9.45243 2.83303 10 2.83301ZM8.62598 16.0127L8.4043 16.9883C8.13542 16.9268 7.96716 16.6587 8.02832 16.3896C8.08961 16.1208 8.35706 15.952 8.62598 16.0127ZM4.08789 13.124C4.3214 12.9771 4.63012 13.047 4.77734 13.2803C5.20892 13.9657 5.77192 14.5609 6.43066 15.0293L6.71875 15.2227L6.79883 15.2842C6.96682 15.445 7.00372 15.7076 6.875 15.9121C6.72774 16.1454 6.41906 16.2154 6.18555 16.0684C5.27576 15.4954 4.50354 14.7233 3.93066 13.8135C3.78387 13.5799 3.85442 13.2711 4.08789 13.124ZM7.5 8.14258C7.50004 7.19333 8.49786 6.48454 9.38281 7.00586H9.38379L12.5303 8.86328L12.6797 8.96582C13.329 9.48333 13.3287 10.5155 12.6797 11.0332L12.5303 11.1367L9.38379 12.9941L9.38281 12.9951C8.55266 13.484 7.6246 12.8898 7.51172 12.0322L7.5 11.8574V8.14258ZM8.875 7.86719C8.79465 7.82 8.71273 7.82543 8.63965 7.87109C8.56419 7.91831 8.50002 8.01036 8.5 8.14258V11.8574L8.51074 11.9492C8.53232 12.0333 8.58291 12.0944 8.63965 12.1299C8.71292 12.1757 8.79478 12.18 8.875 12.1328L12.0215 10.2754L12.0811 10.2275C12.1343 10.1716 12.166 10.0926 12.166 10C12.166 9.90737 12.1343 9.8284 12.0811 9.77246L12.0215 9.72461L8.875 7.86719ZM3.60938 8.02832C3.87847 8.0895 4.04721 8.35688 3.98633 8.62598C3.88606 9.06706 3.83303 9.5275 3.83301 10C3.83303 10.4724 3.88611 10.9321 3.98633 11.373C4.04751 11.6423 3.87863 11.9105 3.60938 11.9717C3.34034 12.0325 3.07296 11.8637 3.01172 11.5947C2.89507 11.0815 2.83303 10.5475 2.83301 10C2.83303 9.45241 2.89502 8.91762 3.01172 8.4043C3.07317 8.13557 3.34049 7.96749 3.60938 8.02832ZM4.77734 6.71875C4.63021 6.95243 4.32157 7.02213 4.08789 6.875C3.85449 6.72778 3.7836 6.41911 3.93066 6.18555L4.77734 6.71875ZM6.18555 3.93066C6.41911 3.7836 6.72778 3.85448 6.875 4.08789C7.02213 4.32157 6.95243 4.63021 6.71875 4.77734C5.93541 5.2706 5.27059 5.93541 4.77734 6.71875L4.35449 6.45215L3.93066 6.18555C4.50361 5.27566 5.27567 4.50362 6.18555 3.93066ZM8.62598 3.98633C8.3569 4.04716 8.08949 3.87845 8.02832 3.60938C7.96746 3.3405 8.13559 3.0732 8.4043 3.01172L8.62598 3.98633Z" fill="white"/>
</svg>
